<svg width="64" height="78" viewBox="0 0 64 78" fill="none" xmlns="http://www.w3.org/2000/svg">
<path d="M45.8365 0H31.666V16.3029H45.8365V0Z" fill="white"/>
<path d="M31.6655 29.5625H45.836V52.5552C45.9007 58.0879 44.3261 63.5149 41.3123 68.1464C38.3365 72.6464 32.5921 78.0005 21.9642 78.0005C10.388 78.0005 3.64072 72.526 0 69.526L8.93829 58.5005C12.4918 61.4019 15.9145 63.7888 22.0187 63.7888C26.6405 63.7888 28.4826 61.9056 29.5618 60.2632C31.0288 57.9821 31.7876 55.3143 31.7418 52.599L31.6655 29.5625Z" fill="white"/>
<path d="M24.438 19.2705H10.2676V33.5041H24.438V19.2705Z" fill="#29ABE2"/>
<path d="M53.2593 71.3214C53.2593 74.3543 51.7224 75.9857 49.575 75.9857C47.4276 75.9857 46.0215 74.0477 46.0215 71.4747C46.0215 68.9017 47.4712 66.8652 49.6949 66.8652C51.9186 66.8652 53.2593 68.8689 53.2593 71.3214ZM47.6674 71.4419C47.6674 73.2703 48.3978 74.6171 49.6513 74.6171C50.9048 74.6171 51.6134 73.1937 51.6134 71.3324C51.6134 69.701 50.9593 68.1682 49.6513 68.1682C48.3433 68.1682 47.6674 69.6463 47.6674 71.4419Z" fill="white"/>
<path d="M56.0716 66.9961V75.8428H54.502V66.9961H56.0716Z" fill="white"/>
<path d="M57.7725 75.8428V66.9961H59.5165L61.3914 70.6421C61.874 71.5954 62.3034 72.5751 62.6776 73.5764C62.5795 72.4815 62.5359 71.2224 62.5359 69.8209V66.9961H63.9748V75.8428H62.3506L60.4539 72.1202C59.9518 71.1423 59.5042 70.1371 59.1132 69.1092C59.1132 70.2041 59.1895 71.4413 59.1895 72.9632V75.8319L57.7725 75.8428Z" fill="white"/>
</svg>
