<svg width="18" height="14" viewBox="0 0 18 14" fill="none" xmlns="http://www.w3.org/2000/svg">
<path d="M0 11.2546C0 10.791 0.119318 10.3648 0.357955 9.97618C0.596591 9.58754 0.913636 9.29095 1.30909 9.08641C2.15455 8.66368 3.01364 8.34663 3.88636 8.13527C4.75909 7.92391 5.64545 7.81823 6.54545 7.81823C7.44545 7.81823 8.33182 7.92391 9.20455 8.13527C10.0773 8.34663 10.9364 8.66368 11.7818 9.08641C12.1773 9.29095 12.4943 9.58754 12.733 9.97618C12.9716 10.3648 13.0909 10.791 13.0909 11.2546V11.9091C13.0909 12.3591 12.9307 12.7444 12.6102 13.0648C12.2898 13.3853 11.9045 13.5455 11.4545 13.5455H1.63636C1.18636 13.5455 0.801136 13.3853 0.480682 13.0648C0.160227 12.7444 0 12.3591 0 11.9091V11.2546ZM16.3636 13.5455H14.2773C14.4273 13.3 14.5398 13.0375 14.6148 12.758C14.6898 12.4785 14.7273 12.1955 14.7273 11.9091V11.091C14.7273 10.491 14.5602 9.91482 14.2261 9.36254C13.892 8.81027 13.4182 8.33641 12.8045 7.94095C13.5 8.02277 14.1545 8.16254 14.7682 8.36027C15.3818 8.558 15.9545 8.80004 16.4864 9.08641C16.9773 9.35913 17.3523 9.66254 17.6114 9.99663C17.8705 10.3307 18 10.6955 18 11.091V11.9091C18 12.3591 17.8398 12.7444 17.5193 13.0648C17.1989 13.3853 16.8136 13.5455 16.3636 13.5455ZM6.54545 7.00004C5.64545 7.00004 4.875 6.67959 4.23409 6.03868C3.59318 5.39777 3.27273 4.62732 3.27273 3.72732C3.27273 2.82732 3.59318 2.05686 4.23409 1.41595C4.875 0.775044 5.64545 0.45459 6.54545 0.45459C7.44545 0.45459 8.21591 0.775044 8.85682 1.41595C9.49773 2.05686 9.81818 2.82732 9.81818 3.72732C9.81818 4.62732 9.49773 5.39777 8.85682 6.03868C8.21591 6.67959 7.44545 7.00004 6.54545 7.00004ZM14.7273 3.72732C14.7273 4.62732 14.4068 5.39777 13.7659 6.03868C13.125 6.67959 12.3545 7.00004 11.4545 7.00004C11.3045 7.00004 11.1136 6.983 10.8818 6.94891C10.65 6.91482 10.4591 6.87732 10.3091 6.83641C10.6773 6.40004 10.9602 5.91595 11.158 5.38413C11.3557 4.85232 11.4545 4.30004 11.4545 3.72732C11.4545 3.15459 11.3557 2.60232 11.158 2.0705C10.9602 1.53868 10.6773 1.05459 10.3091 0.618226C10.5 0.550044 10.6909 0.505726 10.8818 0.485272C11.0727 0.464817 11.2636 0.45459 11.4545 0.45459C12.3545 0.45459 13.125 0.775044 13.7659 1.41595C14.4068 2.05686 14.7273 2.82732 14.7273 3.72732ZM1.63636 11.9091H11.4545V11.2546C11.4545 11.1046 11.417 10.9682 11.342 10.8455C11.267 10.7228 11.1682 10.6273 11.0455 10.5591C10.3091 10.191 9.56591 9.91482 8.81591 9.73073C8.06591 9.54663 7.30909 9.45459 6.54545 9.45459C5.78182 9.45459 5.025 9.54663 4.275 9.73073C3.525 9.91482 2.78182 10.191 2.04545 10.5591C1.92273 10.6273 1.82386 10.7228 1.74886 10.8455C1.67386 10.9682 1.63636 11.1046 1.63636 11.2546V11.9091ZM6.54545 5.36368C6.99545 5.36368 7.38068 5.20345 7.70114 4.883C8.02159 4.56254 8.18182 4.17732 8.18182 3.72732C8.18182 3.27732 8.02159 2.89209 7.70114 2.57164C7.38068 2.25118 6.99545 2.09095 6.54545 2.09095C6.09545 2.09095 5.71023 2.25118 5.38977 2.57164C5.06932 2.89209 4.90909 3.27732 4.90909 3.72732C4.90909 4.17732 5.06932 4.56254 5.38977 4.883C5.71023 5.20345 6.09545 5.36368 6.54545 5.36368Z" fill="#0B3681"/>
</svg>
